<svg xmlns="http://www.w3.org/2000/svg" width="54" height="54" viewBox="0 0 54 54"><defs><clipPath id="e0ppa"><path fill="#fff" d="M27 0c14.912 0 27 12.088 27 27 0 14.911-12.088 27-27 27S0 41.91 0 27C0 12.088 12.088 0 27 0z"/></clipPath></defs><g><g><path fill="#fff" d="M27 0c14.912 0 27 12.088 27 27 0 14.911-12.088 27-27 27S0 41.91 0 27C0 12.088 12.088 0 27 0z"/><path fill="none" stroke="#fff" stroke-miterlimit="20" stroke-width="2" d="M27 0c14.912 0 27 12.088 27 27 0 14.911-12.088 27-27 27S0 41.91 0 27C0 12.088 12.088 0 27 0z" clip-path="url(&quot;#e0ppa&quot;)"/></g><g><path fill="#222" d="M32.905 24.809a2.566 2.566 0 0 1 0 4.44l-7.245 4.155a2.566 2.566 0 0 1-3.848-2.22v-8.34a2.565 2.565 0 0 1 3.848-2.25l7.245 4.155v.06z"/></g></g></svg>