<svg xmlns="http://www.w3.org/2000/svg" width="24" height="18" viewBox="0 0 24 18"><g><g><path fill="#444" d="M21 18H3c-1.967 0-2.979-1.112-3-2.941V2.94C.021 1.112 1.033 0 3 0h18c1.988 0 3 1.136 3 3v12c0 1.864-1.012 3-3 3zm1-15c0-.645-.526-1-1.182-1H3c-.656 0-1 .355-1 1v12c0 .644.344 1 1 1h18c.656 0 1.006-.523 1.006-1.167 0 0-.006-.167-.006-11.833zm-10.446 8.846a.968.968 0 0 1-.518.153.992.992 0 0 1-.733-.333 1.2 1.2 0 0 1-.303-.807V7.153c-.004-.41.191-.79.513-.997a.955.955 0 0 1 1.041-.004L14.481 8v.027c.32.204.518.58.518.987 0 .406-.197.782-.518.986l-2.927 1.847z"/></g></g></svg>